<?xml version="1.0" encoding="UTF-8" standalone="no"?>
<svg
   xmlns:dc="http://purl.org/dc/elements/1.1/"
   xmlns:cc="http://creativecommons.org/ns#"
   xmlns:rdf="http://www.w3.org/1999/02/22-rdf-syntax-ns#"
   xmlns:svg="http://www.w3.org/2000/svg"
   xmlns="http://www.w3.org/2000/svg"
   xmlns:sodipodi="http://sodipodi.sourceforge.net/DTD/sodipodi-0.dtd"
   xmlns:inkscape="http://www.inkscape.org/namespaces/inkscape"
   width="6in"
   height="4in"
   viewBox="0 0 432 288"
   version="1.2"
   id="svg187"
   sodipodi:docname="q1.svg"
   inkscape:version="">
  <metadata
     id="metadata193">
    <rdf:RDF>
      <cc:Work
         rdf:about="">
        <dc:format>image/svg+xml</dc:format>
        <dc:type
           rdf:resource="http://purl.org/dc/dcmitype/StillImage" />
        <dc:title></dc:title>
      </cc:Work>
    </rdf:RDF>
  </metadata>
  <defs
     id="defs191" />
  <sodipodi:namedview
     pagecolor="#ffffff"
     bordercolor="#666666"
     borderopacity="1"
     objecttolerance="10"
     gridtolerance="10"
     guidetolerance="10"
     inkscape:pageopacity="0"
     inkscape:pageshadow="2"
     inkscape:window-width="1280"
     inkscape:window-height="777"
     id="namedview189"
     showgrid="false"
     units="in"
     inkscape:zoom="0.4469697"
     inkscape:cx="217.65835"
     inkscape:cy="625.16344"
     inkscape:window-x="0"
     inkscape:window-y="23"
     inkscape:window-maximized="0"
     inkscape:current-layer="svg187" />
  <g
     id="g4081"
     transform="translate(57.050847,92.135598)">
    <path
       style="fill:none;stroke:#000000;stroke-width:1.40999997;stroke-linecap:round;stroke-linejoin:round;stroke-miterlimit:10;stroke-opacity:1"
       d="m 152.52953,-48.84718 -11.67187,9.56249 -3.89453,3.19141 -15.5625,12.75 -3.89454,3.1875 -3.89062,3.1875 -3.89063,3.19141 -11.671874,9.5625 -3.89453,3.1875 -11.67188,9.5625 -3.89062,3.1914 -3.89063,3.1875 -3.89453,3.1875 -11.67187,9.5625 H 242.13109 l 4.1875,-2.91797 4.1875,-2.92187 4.1875,-2.91797 8.375,-5.84375 4.1875,-2.91797 4.1875,-2.92187 4.1875,-2.91797 8.375,-5.84375 4.19141,-2.91797 4.1875,-2.92188 4.1875,-2.91796 4.1875,-2.92188 4.1875,-2.91797 8.375,-5.84375 4.1875,-2.91797 4.1875,-2.92187 4.1875,-2.91797 8.375,-5.84375 4.1875,-2.91797 4.1875,-2.92187 -10.00781,-0.33594 -5,-0.17188 -10.00781,-0.33593 -5,-0.16797 -5.00391,-0.17188 -10.00781,-0.33594 -5,-0.17187 -10.00782,-0.33594 -5,-0.17187 -10.00781,-0.33594 -5,-0.16797 -5.0039,-0.17187 -10.00782,-0.33594 -5,-0.17188 -10.00781,-0.33593 -5,-0.17188 -10.00781,-0.33594 -5,-0.16797 -5.00391,-0.17187 -10.00781,-0.33594 -5,-0.17187 -10.00781,-0.33594 -5,-0.17188 -15.01172,-0.5039 -5,-0.17188 -5.00391,-0.16796"
       id="path4"
       inkscape:connector-curvature="0" />
    <path
       style="fill:none;stroke:#000000;stroke-width:1.40999997;stroke-linecap:round;stroke-linejoin:round;stroke-miterlimit:10;stroke-opacity:1"
       d="m 242.88109,29.07469 v 89.46094"
       id="path6"
       inkscape:connector-curvature="0" />
    <path
       style="fill:none;stroke:#000000;stroke-width:1.40999997;stroke-linecap:round;stroke-linejoin:round;stroke-miterlimit:10;stroke-opacity:1"
       d="M 339.21313,46.50047 V -38.40578"
       id="path8"
       inkscape:connector-curvature="0" />
    <path
       style="fill:none;stroke:#000000;stroke-width:1.40999997;stroke-linecap:round;stroke-linejoin:round;stroke-miterlimit:10;stroke-opacity:1"
       d="m 245.41234,116.84031 28.2461,-21.71093 4.03906,-3.10157 4.03516,-3.10156 4.03515,-3.10547 16.14063,-12.40625 4.03906,-3.10156 24.21094,-18.60937 4.03906,-3.10157 4.03516,-3.10156"
       id="path10"
       inkscape:connector-curvature="0" />
    <path
       style="fill:none;stroke:#000000;stroke-width:1.40999997;stroke-linecap:round;stroke-linejoin:round;stroke-miterlimit:10;stroke-opacity:1"
       d="m 60.252186,27.72703 v 87.85938"
       id="path12"
       inkscape:connector-curvature="0" />
    <path
       style="fill:none;stroke:#000000;stroke-width:1.40999997;stroke-linecap:round;stroke-linejoin:round;stroke-miterlimit:10;stroke-opacity:1"
       d="M 59.295156,117.19969 H 241.68578"
       id="path14"
       inkscape:connector-curvature="0" />
    <path
       style="fill:none;stroke:#000000;stroke-width:1.40999997;stroke-linecap:round;stroke-linejoin:round;stroke-miterlimit:10;stroke-opacity:1"
       d="m 147.47875,52.17625 3.98047,-3.07812"
       id="path16"
       inkscape:connector-curvature="0" />
    <path
       style="fill:none;stroke:#000000;stroke-width:1.40999997;stroke-linecap:round;stroke-linejoin:round;stroke-miterlimit:10;stroke-opacity:1"
       d="m 131.54516,64.48094 3.98437,-3.07813 3.98438,-3.07421"
       id="path18"
       inkscape:connector-curvature="0" />
    <path
       style="fill:none;stroke:#000000;stroke-width:1.40999997;stroke-linecap:round;stroke-linejoin:round;stroke-miterlimit:10;stroke-opacity:1"
       d="m 111.635,79.86375 3.98047,-3.07812 3.98437,-3.07813 3.98047,-3.07422"
       id="path20"
       inkscape:connector-curvature="0" />
    <path
       style="fill:none;stroke:#000000;stroke-width:1.40999997;stroke-linecap:round;stroke-linejoin:round;stroke-miterlimit:10;stroke-opacity:1"
       d="m 87.736556,98.32078 3.98438,-3.07812 3.98047,-3.07422 3.98437,-3.07813"
       id="path22"
       inkscape:connector-curvature="0" />
    <path
       style="fill:none;stroke:#000000;stroke-width:1.40999997;stroke-linecap:round;stroke-linejoin:round;stroke-miterlimit:10;stroke-opacity:1"
       d="m 63.842026,116.77781 3.98438,-3.07812 3.98047,-3.07422 3.98437,-3.07812 3.98047,-3.07422"
       id="path24"
       inkscape:connector-curvature="0" />
    <path
       style="fill:none;stroke:#000000;stroke-width:1.40999997;stroke-linecap:round;stroke-linejoin:round;stroke-miterlimit:10;stroke-opacity:1"
       d="m 152.74047,40.25828 v 5.21875"
       id="path26"
       inkscape:connector-curvature="0" />
    <path
       style="fill:none;stroke:#000000;stroke-width:1.40999997;stroke-linecap:round;stroke-linejoin:round;stroke-miterlimit:10;stroke-opacity:1"
       d="M 152.74047,-1.49172 V 3.72703"
       id="path28"
       inkscape:connector-curvature="0" />
    <path
       style="fill:none;stroke:#000000;stroke-width:1.40999997;stroke-linecap:round;stroke-linejoin:round;stroke-miterlimit:10;stroke-opacity:1"
       d="m 152.74047,-27.58547 v 10.4375"
       id="path30"
       inkscape:connector-curvature="0" />
    <path
       style="fill:none;stroke:#000000;stroke-width:1.40999997;stroke-linecap:round;stroke-linejoin:round;stroke-miterlimit:10;stroke-opacity:1"
       d="m 152.74047,-48.46047 v 10.4375"
       id="path32"
       inkscape:connector-curvature="0" />
    <path
       style="fill:none;stroke:#000000;stroke-width:1.40999997;stroke-linecap:round;stroke-linejoin:round;stroke-miterlimit:10;stroke-opacity:1"
       d="m 152.74047,19.38328 v 10.4375"
       id="path34"
       inkscape:connector-curvature="0" />
    <path
       style="fill:none;stroke:#000000;stroke-width:1.40999997;stroke-linecap:round;stroke-linejoin:round;stroke-miterlimit:10;stroke-opacity:1"
       d="M 318.46703,45.75438 H 338.6975"
       id="path36"
       inkscape:connector-curvature="0" />
    <path
       style="fill:none;stroke:#000000;stroke-width:1.40999997;stroke-linecap:round;stroke-linejoin:round;stroke-miterlimit:10;stroke-opacity:1"
       d="m 293.17406,45.75438 h 10.11719"
       id="path38"
       inkscape:connector-curvature="0" />
    <path
       style="fill:none;stroke:#000000;stroke-width:1.40999997;stroke-linecap:round;stroke-linejoin:round;stroke-miterlimit:10;stroke-opacity:1"
       d="m 267.88109,45.75438 h 10.11719"
       id="path40"
       inkscape:connector-curvature="0" />
    <path
       style="fill:none;stroke:#000000;stroke-width:1.40999997;stroke-linecap:round;stroke-linejoin:round;stroke-miterlimit:10;stroke-opacity:1"
       d="m 242.58813,45.75438 h 10.11718"
       id="path42"
       inkscape:connector-curvature="0" />
    <path
       style="fill:none;stroke:#000000;stroke-width:1.40999997;stroke-linecap:round;stroke-linejoin:round;stroke-miterlimit:10;stroke-opacity:1"
       d="m 217.29516,45.75438 h 10.11718"
       id="path44"
       inkscape:connector-curvature="0" />
    <path
       style="fill:none;stroke:#000000;stroke-width:1.40999997;stroke-linecap:round;stroke-linejoin:round;stroke-miterlimit:10;stroke-opacity:1"
       d="m 186.9475,45.75438 h 15.17188"
       id="path46"
       inkscape:connector-curvature="0" />
    <path
       style="fill:none;stroke:#000000;stroke-width:1.40999997;stroke-linecap:round;stroke-linejoin:round;stroke-miterlimit:10;stroke-opacity:1"
       d="m 151.53734,45.75438 h 20.23438"
       id="path48"
       inkscape:connector-curvature="0" />
    <path
       style="fill:none;stroke:#3030ca;stroke-width:1.40999997;stroke-linecap:round;stroke-linejoin:round;stroke-miterlimit:10;stroke-opacity:1"
       d="m 243.56078,126.44578 v 0.16016 l -0.0195,0.17969 v 0.20703 l -0.0156,0.14844 -0.0156,0.16015 V 128.27 l 0.0156,0.28906 v 0.98438 l -0.0156,0.35547 V 130.27 l -0.0156,0.3711 v 2.42187 l 0.0156,0.40625 0.0156,0.40234 v 2.19532 l 0.0156,0.48437 v 0.5 l 0.0195,0.53125 0.0312,0.51953 0.0312,0.53125 0.0312,0.46875 0.0352,0.41797 0.0312,0.3711 v 0.27343 l 0.0156,0.19532 -0.0156,0.14453 -0.0156,0.21093 -0.0156,0.12891"
       id="path50"
       inkscape:connector-curvature="0" />
    <path
       style="fill:none;stroke:#3030ca;stroke-width:1.40999997;stroke-linecap:round;stroke-linejoin:round;stroke-miterlimit:10;stroke-opacity:1"
       d="m 243.38109,127.10594 -0.0664,0.082 -0.12891,0.11328 -0.0976,0.0625 -0.21094,0.16406 -0.16016,0.19141 -0.14844,0.22656 -0.22656,0.3086 -0.22656,0.33984 -0.25781,0.41797 -0.29297,0.45312 -0.3086,0.46875 -0.32421,0.46485 -0.33985,0.4375 -0.32422,0.37109 -0.27734,0.30469 -0.19531,0.22656 -0.11328,0.11328 -0.0312,-0.11328 0.0976,-0.20703 0.17969,-0.29297 0.28906,-0.37109"
       id="path52"
       inkscape:connector-curvature="0" />
    <path
       style="fill:none;stroke:#3030ca;stroke-width:1.40999997;stroke-linecap:round;stroke-linejoin:round;stroke-miterlimit:10;stroke-opacity:1"
       d="m 243.93188,126.88328 0.0312,0.20703 0.0664,0.21094 0.11328,0.30469 0.16016,0.30859 0.24609,0.3711 0.27344,0.40234 0.33984,0.46875 0.34375,0.45313 0.35547,0.45312 0.35547,0.43359 0.3086,0.3711 0.26171,0.30859 0.24219,0.24219 0.17969,0.14453 0.11328,0.0977"
       id="path54"
       inkscape:connector-curvature="0" />
    <path
       style="fill:none;stroke:#3030ca;stroke-width:1.40999997;stroke-linecap:round;stroke-linejoin:round;stroke-miterlimit:10;stroke-opacity:1"
       d="m 152.20141,51.69188 -0.0352,0.21093 -0.0156,0.14454 v 0.16015 l -0.0156,0.21094 v 0.19141 l 0.0156,0.22656 v 0.24219 l 0.0156,0.24218 0.0156,0.27735 0.0195,0.28906 v 0.30469 l 0.0156,0.29297 v 1.17968 l -0.0156,0.30469 v 0.90234 l 0.0156,0.3086 0.0156,0.30469 v 0.30859 l 0.0156,0.30859 0.0156,0.30469 0.0156,0.30859 0.0156,0.32032 v 0.32422 l 0.0195,0.35546 v 0.35547 l -0.0195,0.33594 v 0.32422 l -0.0156,0.32422 -0.0156,0.28906 -0.0156,0.25781 -0.0156,0.22657 -0.0312,0.28906 -0.0195,0.14844 -0.0156,-0.12891 -0.0156,-0.21094"
       id="path56"
       inkscape:connector-curvature="0" />
    <path
       style="fill:none;stroke:#3030ca;stroke-width:1.40999997;stroke-linecap:round;stroke-linejoin:round;stroke-miterlimit:10;stroke-opacity:1"
       d="m 151.77953,51.66063 -0.0664,-0.0977 -0.0664,-0.082 -0.21094,0.0312 -0.14453,0.0977 -0.14453,0.16406 -0.19531,0.22265 -0.19532,0.27735 -0.21093,0.30469 -0.22657,0.33984 -0.24218,0.32422 -0.24219,0.28906 -0.19531,0.25781 -0.13282,0.17969 -0.0781,0.11328 0.12891,0.0156 0.16015,-0.082 0.19531,-0.16016 0.2461,-0.21094"
       id="path58"
       inkscape:connector-curvature="0" />
    <path
       style="fill:none;stroke:#3030ca;stroke-width:1.40999997;stroke-linecap:round;stroke-linejoin:round;stroke-miterlimit:10;stroke-opacity:1"
       d="m 152.08813,51.25438 0.0312,0.21093 0.0469,0.12891 0.082,0.11328 0.14453,0.16016 0.17969,0.17969 0.24219,0.21093 0.27734,0.24219 0.29297,0.28906 0.30859,0.25782 0.28907,0.22656 0.30859,0.21094 0.22656,0.16015 0.21094,0.12891 0.14844,0.0977"
       id="path60"
       inkscape:connector-curvature="0" />
    <path
       style="fill:none;stroke:#3030ca;stroke-width:1.40999997;stroke-linecap:round;stroke-linejoin:round;stroke-miterlimit:10;stroke-opacity:1"
       d="m 338.90844,50.85203 0.0469,0.17969 0.0312,0.14453 0.0195,0.14453 v 1.24219 l 0.0156,0.37109 v 0.8086 l 0.0156,0.43359 0.0156,0.4375 0.0156,0.4336 0.0156,0.42187 0.0156,0.4375 0.0195,0.40234 0.0156,0.38672 -0.0156,0.38672 v 1.17969 l 0.0156,0.41797 0.0312,0.40625 0.0156,0.38672 0.0508,0.38672 0.0312,0.30468 0.0312,0.22657 0.0508,0.17968 0.0312,0.0977"
       id="path62"
       inkscape:connector-curvature="0" />
    <path
       style="fill:none;stroke:#3030ca;stroke-width:1.40999997;stroke-linecap:round;stroke-linejoin:round;stroke-miterlimit:10;stroke-opacity:1"
       d="m 338.12719,50.67625 -0.0781,0.11328 -0.11328,0.0937 -0.11328,0.17969 -0.14844,0.19141 -0.19531,0.27734 -0.19141,0.32031 -0.24609,0.35547 -0.25781,0.42188 -0.26172,0.44922 -0.25781,0.42187 -0.24219,0.40234 -0.17969,0.35547 -0.1289,0.21094 -0.0312,0.14453 0.21093,-0.0977 0.17578,-0.17579 0.24219,-0.27734"
       id="path64"
       inkscape:connector-curvature="0" />
    <path
       style="fill:none;stroke:#3030ca;stroke-width:1.40999997;stroke-linecap:round;stroke-linejoin:round;stroke-miterlimit:10;stroke-opacity:1"
       d="m 338.90844,50.96531 -0.0352,0.12891 -0.0156,0.24219 0.0664,0.16015 0.0977,0.16407 0.17578,0.24218 0.22656,0.24219 0.27735,0.28906 0.30859,0.3086 0.35547,0.33594 0.33984,0.33984 0.35938,0.24219 0.32422,0.21093 0.24218,0.12891 0.22657,0.0977 0.1289,0.14453"
       id="path66"
       inkscape:connector-curvature="0" />
    <path
       style="fill:none;stroke:#3030ca;stroke-width:1.40999997;stroke-linecap:round;stroke-linejoin:round;stroke-miterlimit:10;stroke-opacity:1"
       d="m 59.252186,124.02391 0.16015,0.0469 0.0352,0.17969 -0.0508,0.12891 -0.0977,0.16015 -0.0469,0.19532 v 0.22656 l -0.082,0.27344 -0.082,0.30859 -0.0469,0.35156 v 0.42188 l 0.0469,0.45312 0.0977,0.48438 0.0664,0.53125 0.14453,0.54687 0.0977,0.58203 v 0.58203 l 0.0508,0.56641 v 0.54688 l 0.0156,0.51562 0.0625,0.45313 -0.0312,0.41796 -0.0977,0.32422 -0.0977,0.27344 -0.0977,0.22656 -0.0625,0.14453 -0.0156,0.14844"
       id="path68"
       inkscape:connector-curvature="0" />
    <path
       style="fill:none;stroke:#3030ca;stroke-width:1.40999997;stroke-linecap:round;stroke-linejoin:round;stroke-miterlimit:10;stroke-opacity:1"
       d="m 58.474836,124.68797 0.0937,-0.082 h 0.13282 l -0.0156,0.12891 -0.14844,0.14453 -0.25781,0.21093 -0.30859,0.25782 -0.40625,0.30468 -0.46875,0.3711 -0.42188,0.40625 -0.39062,0.38672 -0.29297,0.33984 -0.16016,0.30469 -0.082,0.22656 -0.0156,0.12891 0.16406,-0.0156 0.21094,-0.1289"
       id="path70"
       inkscape:connector-curvature="0" />
    <path
       style="fill:none;stroke:#3030ca;stroke-width:1.40999997;stroke-linecap:round;stroke-linejoin:round;stroke-miterlimit:10;stroke-opacity:1"
       d="m 59.623276,124.52391 0.082,0.0664 0.12891,0.12891 0.17969,0.24219 0.22656,0.30469 0.27734,0.32421 0.32422,0.33985 0.32422,0.28906 0.35547,0.30859 0.25781,0.24219 0.2461,0.19141 0.19531,0.14453"
       id="path72"
       inkscape:connector-curvature="0" />
    <path
       style="fill:none;stroke:#3030ca;stroke-width:1.40999997;stroke-linecap:round;stroke-linejoin:round;stroke-miterlimit:10;stroke-opacity:1"
       d="m 148.81078,66.00828 0.16406,0.0508 0.14454,0.0469 0.14453,0.0312 0.22656,0.0508 0.24609,-0.0156 0.30469,-0.0352 0.30859,-0.0312 0.32422,-0.0469 0.35938,-0.0352 0.33984,-0.0156 h 0.32422 l 0.29297,0.0156 0.25781,0.0508"
       id="path74"
       inkscape:connector-curvature="0" />
    <path
       style="fill:none;stroke:#3030ca;stroke-width:1.40999997;stroke-linecap:round;stroke-linejoin:round;stroke-miterlimit:10;stroke-opacity:1"
       d="m 148.40453,66.94578 -0.0977,-0.0469 -0.0156,0.22265 0.0508,0.22657 0.0469,0.30859 0.0312,0.41797 0.0508,0.5 0.0312,0.61328 0.0508,0.64844 0.0312,0.67578 0.0156,0.62891 0.0156,0.59765 0.0508,0.51953 0.0312,0.33594 0.0664,0.24219 0.0625,0.14844"
       id="path76"
       inkscape:connector-curvature="0" />
    <path
       style="fill:none;stroke:#3030ca;stroke-width:1.40999997;stroke-linecap:round;stroke-linejoin:round;stroke-miterlimit:10;stroke-opacity:1"
       d="m 148.45531,70.99656 -0.0664,-0.1289 0.0664,-0.0781 0.0977,-0.0508 0.0937,-0.0312 0.13281,-0.0664 0.16016,-0.0625 0.17969,-0.0508 0.22656,-0.0469 0.22656,-0.0664 0.22656,-0.0312 0.26172,-0.0312 h 0.53516 l 0.24219,0.0156 0.19531,0.0156 0.14453,-0.0156"
       id="path78"
       inkscape:connector-curvature="0" />
    <path
       style="fill:none;stroke:#3030ca;stroke-width:1.40999997;stroke-linecap:round;stroke-linejoin:round;stroke-miterlimit:10;stroke-opacity:1"
       d="m 153.80688,72.03172 -0.13282,-0.0352 -0.16015,-0.0625 -0.11328,-0.0469 -0.17969,0.0312 -0.19531,0.12891 -0.0977,0.082 -0.12891,0.0937 -0.11328,0.0977 -0.21094,0.21094 -0.082,0.0977 -0.0781,0.14453 -0.0508,0.0977 -0.0469,0.17579 -0.0156,0.14453 v 0.29297 l 0.0312,0.1289 0.0469,0.11328 0.082,0.11328 0.082,0.10938 0.22657,0.19531 0.1289,0.082 0.17969,0.11328 0.14453,0.0781 0.14844,0.082 0.12891,0.11328 0.0977,0.082 0.11328,0.0937 0.0977,0.11328 0.0625,0.0977 0.0664,0.11328 -0.0156,0.12891 -0.0352,0.17969 -0.11328,0.16015 -0.14453,0.19141 -0.16406,0.17969 -0.17578,0.14453 -0.19531,0.1289 -0.19532,0.0977 -0.19531,0.0469 -0.12891,0.0352 -0.16015,-0.0664 -0.13281,-0.082 -0.0625,-0.11328 -0.0156,-0.1289 0.0781,-0.0937"
       id="path80"
       inkscape:connector-curvature="0" />
    <path
       style="fill:none;stroke:#3030ca;stroke-width:1.40999997;stroke-linecap:round;stroke-linejoin:round;stroke-miterlimit:10;stroke-opacity:1"
       d="m 156.06078,73.16063 0.0469,-0.12891 0.0977,-0.16016 0.0664,-0.082 0.12891,-0.16015 0.11328,-0.14844 0.11328,-0.14453 0.14453,-0.19141 0.0977,-0.11328 0.11328,-0.12891 0.16406,-0.16406 0.0977,-0.0625 0.0977,0.0312 0.0625,0.14453 0.0312,0.11328 v 0.12891 l -0.0156,0.16406 -0.0156,0.11328 -0.0156,0.16016 -0.0156,0.17578 -0.0156,0.24219 -0.0156,0.29297 v 1.51562 l 0.0156,0.4375 0.0156,0.44922 0.0156,0.4375 0.0312,0.38672 0.0156,0.32422 0.0352,0.22656 v 0.11328"
       id="path82"
       inkscape:connector-curvature="0" />
    <path
       style="fill:none;stroke:#3030ca;stroke-width:1.40999997;stroke-linecap:round;stroke-linejoin:round;stroke-miterlimit:10;stroke-opacity:1"
       d="m 156.15453,77.42235 0.2461,0.0156 0.24218,0.0312 0.33985,0.0352 h 0.33984 l 0.4375,0.0469 h 0.40625 l 0.4375,0.0156 0.35938,-0.0156 0.30859,-0.0156"
       id="path84"
       inkscape:connector-curvature="0" />
    <path
       style="fill:none;stroke:#3030ca;stroke-width:1.40999997;stroke-linecap:round;stroke-linejoin:round;stroke-miterlimit:10;stroke-opacity:1"
       d="m 334.62719,64.13719 h 0.9375 l 0.29297,-0.0156 0.29297,-0.0312 0.32421,-0.0508 0.33985,-0.0469 0.33984,-0.0664 0.33985,-0.0469 0.24609,-0.0664 0.24219,-0.0625 0.14453,-0.0312 0.13281,-0.082 0.12891,-0.0156"
       id="path86"
       inkscape:connector-curvature="0" />
    <path
       style="fill:none;stroke:#3030ca;stroke-width:1.40999997;stroke-linecap:round;stroke-linejoin:round;stroke-miterlimit:10;stroke-opacity:1"
       d="m 333.91234,64.84813 -0.0156,0.21093 0.0156,0.20704 v 0.29296 l 0.0312,0.33594 0.0352,0.3711 0.0625,0.46875 0.0664,0.53515 0.0976,0.57813 0.0977,0.61328 0.11328,0.64844 0.11328,0.59765 0.11328,0.57813 0.0977,0.51953 0.082,0.41797 0.0625,0.33984 0.0312,0.22656 0.0352,0.12891"
       id="path88"
       inkscape:connector-curvature="0" />
    <path
       style="fill:none;stroke:#3030ca;stroke-width:1.40999997;stroke-linecap:round;stroke-linejoin:round;stroke-miterlimit:10;stroke-opacity:1"
       d="m 334.74047,68.31688 h 0.37109 l 0.21094,-0.0156 0.29297,-0.0156 0.33984,-0.0312 0.35547,-0.0352 0.8125,-0.0625 0.3711,-0.082 0.35937,-0.0469 0.29297,-0.0664 0.24219,-0.0156 0.16015,0.0508"
       id="path90"
       inkscape:connector-curvature="0" />
    <path
       style="fill:none;stroke:#3030ca;stroke-width:1.40999997;stroke-linecap:round;stroke-linejoin:round;stroke-miterlimit:10;stroke-opacity:1"
       d="m 340.34984,70.73875 -0.0976,-0.0469 -0.14453,-0.0664 -0.17969,-0.0781 -0.16016,-0.0195 h -0.16406 l -0.0977,0.0352 -0.16015,0.11328 -0.12891,0.12891 -0.0976,0.17578 -0.11329,0.24219 -0.0351,0.24218 v 0.25782 l 0.0508,0.29297 0.0977,0.27343 0.16015,0.25782 0.21094,0.25781 0.22656,0.24219 0.26172,0.21093 0.27344,0.17578 0.26172,0.14454 0.22656,0.1289 0.19531,0.0977 0.14453,0.0664 0.11328,0.0781 0.0664,0.13281 -0.082,0.17578 -0.14844,0.12891 -0.17578,0.16016 -0.26172,0.19531 -0.25781,0.16015 -0.30859,0.16407 -0.29297,0.14453 -0.27344,0.1289 -0.22656,0.12891 -0.14844,0.082 -0.0977,0.0469 0.13282,-0.11328 0.14438,-0.12899"
       id="path92"
       inkscape:connector-curvature="0" />
    <path
       style="fill:none;stroke:#3030ca;stroke-width:1.40999997;stroke-linecap:round;stroke-linejoin:round;stroke-miterlimit:10;stroke-opacity:1"
       d="m 343.0725,71.36766 -0.0469,-0.11328 0.14453,-0.0625 0.17968,-0.0508 0.25782,-0.0937 0.17968,-0.0352 0.17969,-0.0156 0.19531,0.0352 0.24219,0.0312 0.21094,0.0781 0.21094,0.0977 0.19531,0.11328 0.12891,0.0977 0.1289,0.12891 0.0977,0.14453 0.0664,0.17968 0.0469,0.20704 -0.0312,0.22656 -0.0664,0.24219 -0.1289,0.27343 -0.14453,0.3086 -0.16407,0.33984 -0.19531,0.33984 -0.21094,0.33594 -0.21093,0.3086 -0.22657,0.27343 -0.16015,0.17969 -0.14844,0.17578 -0.0977,0.11328 -0.11328,0.12891 0.0977,-0.0664 0.1289,-0.0469 0.17969,-0.082 0.21094,-0.0781 0.24219,-0.082 0.22656,-0.082 0.24609,-0.0781 0.24219,-0.0352 0.19531,-0.0156 0.21094,0.0352 0.16016,0.0312 0.13281,0.0469"
       id="path94"
       inkscape:connector-curvature="0" />
    <path
       style="fill:none;stroke:#3030ca;stroke-width:1.40999997;stroke-linecap:round;stroke-linejoin:round;stroke-miterlimit:10;stroke-opacity:1"
       d="m 237.10375,145.18797 0.13281,0.0156 0.16016,0.0156 h 0.22656 l 0.26172,0.0156 h 0.30469 l 0.375,-0.0156 0.40625,-0.0156 0.4375,-0.0508 0.4375,-0.0781 0.42187,-0.0508 0.42188,-0.0781 0.38672,-0.082 0.35937,-0.0664 0.27344,-0.0625 0.26172,-0.0312 h 0.17578"
       id="path96"
       inkscape:connector-curvature="0" />
    <path
       style="fill:none;stroke:#3030ca;stroke-width:1.40999997;stroke-linecap:round;stroke-linejoin:round;stroke-miterlimit:10;stroke-opacity:1"
       d="m 236.22875,146.47703 0.12891,0.22657 0.0664,0.17968 0.0156,0.20703 0.082,0.33985 0.082,0.38672 0.0625,0.5 0.0977,0.58203 0.082,0.67969 0.0976,0.74218 0.11329,0.78907 0.082,0.79296 0.0976,0.77344 0.0625,0.69531 0.082,0.62891 0.0156,0.51563 0.0664,0.42187 0.0312,0.28906"
       id="path98"
       inkscape:connector-curvature="0" />
    <path
       style="fill:none;stroke:#3030ca;stroke-width:1.40999997;stroke-linecap:round;stroke-linejoin:round;stroke-miterlimit:10;stroke-opacity:1"
       d="m 238.09594,150.96531 0.27344,0.0312 h 0.30859 l 0.42187,0.0156 0.4375,-0.0312 0.48829,-0.0469 0.53515,-0.0156 0.53516,-0.0508 0.51562,-0.0156 0.4375,-0.0312 0.39063,-0.0156"
       id="path100"
       inkscape:connector-curvature="0" />
    <path
       style="fill:none;stroke:#3030ca;stroke-width:1.40999997;stroke-linecap:round;stroke-linejoin:round;stroke-miterlimit:10;stroke-opacity:1"
       d="m 244.83813,154.145 h -0.4375 l -0.16016,0.0156 -0.14453,0.0312 -0.19531,0.0664 -0.16407,0.12891 -0.14453,0.14453 -0.11328,0.17969 -0.0977,0.22656 -0.082,0.24219 -0.0312,0.25781 0.0156,0.28906 0.0469,0.28907 0.0977,0.29296 0.16406,0.25782 0.19531,0.21093 0.22657,0.17579 0.27343,0.1289 0.27735,0.0977 0.27344,0.0625 0.29296,0.0664 0.26172,0.0469 0.22657,0.082 0.17578,0.11328 0.13281,0.12891 0.0781,0.17969 0.0352,0.1914 -0.0195,0.22656 -0.0625,0.24219 -0.14453,0.24219 -0.21094,0.22656 -0.27734,0.17578 -0.29297,0.16407 -0.33985,0.10937 -0.30859,0.0977 -0.27344,0.0664 -0.24609,0.0312 -0.17578,-0.0156 0.0781,-0.12891 0.21094,-0.0508"
       id="path102"
       inkscape:connector-curvature="0" />
    <path
       style="fill:none;stroke:#3030ca;stroke-width:1.40999997;stroke-linecap:round;stroke-linejoin:round;stroke-miterlimit:10;stroke-opacity:1"
       d="m 248.79516,154.645 -0.0156,-0.11328 0.0156,-0.12891 0.0195,-0.11328 0.0781,-0.11328 0.14844,-0.11328 0.21094,-0.0625 0.27344,-0.0508 h 0.30859 l 0.32422,0.0352 0.35547,0.0625 0.32422,0.0976 0.29296,0.12891 0.26172,0.16015 0.17578,0.16407 0.11329,0.22656 0.0508,0.22266 -0.0156,0.22656 -0.0976,0.22656 -0.14844,0.22656 -0.22656,0.19532 -0.25782,0.16015 -0.26172,0.12891 -0.25781,0.0976 -0.22656,0.0469 -0.16406,0.0508 -0.0977,0.0625 0.082,0.082 0.12891,0.0977 0.21094,0.1289 0.24609,0.12891 0.24219,0.14453 0.21093,0.16016 0.17579,0.16406 0.14843,0.20703 0.0469,0.22656 -0.0156,0.22657 -0.082,0.24218 -0.16015,0.25782 -0.19532,0.24218 -0.22656,0.24219 -0.27734,0.21094 -0.27344,0.16016 -0.26172,0.14453 -0.28906,0.1289 -0.21094,0.082 -0.14844,0.0664 -0.11328,0.0469"
       id="path104"
       inkscape:connector-curvature="0" />
    <path
       style="fill:none;stroke:#3030ca;stroke-width:1.40999997;stroke-linecap:round;stroke-linejoin:round;stroke-miterlimit:10;stroke-opacity:1"
       d="m 52.986556,137.85985 0.11719,0.0508 0.14453,0.0312 0.16016,0.0156 h 0.97265 l 0.32422,-0.0156 0.35938,-0.0156 h 1.66797 l 0.42187,-0.0156 0.42188,-0.0352 0.40625,-0.0312 0.37109,-0.0312 0.375,-0.0469 0.35547,-0.0508 0.33984,-0.0469 0.34375,-0.0508 0.28907,-0.0781 0.27734,-0.0156 h 0.21094 l 0.22656,0.0156 0.17969,0.0469"
       id="path106"
       inkscape:connector-curvature="0" />
    <path
       style="fill:none;stroke:#3030ca;stroke-width:1.40999997;stroke-linecap:round;stroke-linejoin:round;stroke-miterlimit:10;stroke-opacity:1"
       d="m 53.006086,139.36375 0.0156,0.19141 0.0156,0.19531 0.0312,0.27344 0.0352,0.28906 0.0312,0.33984 0.0156,0.38672 0.0312,0.4375 0.0352,0.51563 0.0312,0.53515 0.0469,0.57813 0.0352,0.58203 0.0312,0.59766 0.0469,0.61328 0.0352,0.59765 0.0469,0.64454 0.0508,0.6289 0.0625,0.67969 0.0508,0.64453 0.0625,0.66406 0.0508,0.62891 0.0977,0.58203 0.0625,0.5 0.0508,0.40234 0.0625,0.28907"
       id="path108"
       inkscape:connector-curvature="0" />
    <path
       style="fill:none;stroke:#3030ca;stroke-width:1.40999997;stroke-linecap:round;stroke-linejoin:round;stroke-miterlimit:10;stroke-opacity:1"
       d="m 53.685776,146.25438 0.21094,0.0312 0.21094,0.0195 0.25781,0.0156 0.39062,0.0156 0.42188,0.0156 0.50391,-0.0156 0.55078,-0.0156 0.5664,-0.0351 0.55078,-0.0156 0.55079,-0.0312 h 0.84375 l 0.33984,0.0156 0.21094,0.0156 0.19531,-0.0312"
       id="path110"
       inkscape:connector-curvature="0" />
    <path
       style="fill:none;stroke:#3030ca;stroke-width:1.40999997;stroke-linecap:round;stroke-linejoin:round;stroke-miterlimit:10;stroke-opacity:1"
       d="m 62.150626,148.645 -0.0312,-0.0976 -0.0664,-0.0977 -0.082,-0.0977 -0.11328,-0.0469 -0.16016,-0.0469 -0.17969,0.0312 -0.17968,0.082 -0.19141,0.12891 -0.19531,0.17578 -0.21094,0.21094 -0.17969,0.27344 -0.16015,0.30859 -0.0977,0.33594 -0.0508,0.33984 v 0.33985 l 0.0977,0.30468 0.16407,0.27735 0.22656,0.25781 0.27344,0.20703 0.30859,0.16406 0.33984,0.11328 0.32422,0.0781 0.29297,0.0352 0.26172,0.0625 0.16016,0.0312 0.16406,0.0664 0.0937,0.082 0.0352,0.12891 0.0156,0.16016 -0.082,0.21093 -0.14453,0.19141 -0.17969,0.21094 -0.22656,0.19531 -0.25781,0.16016 -0.26172,0.11328 -0.29297,0.082 -0.22656,0.0469 -0.16016,0.0156 -0.19531,-0.0469 -0.082,-0.0664 -0.0156,-0.11328 0.0664,-0.12891 0.19531,-0.12891"
       id="path112"
       inkscape:connector-curvature="0" />
    <path
       style="fill:none;stroke:#3030ca;stroke-width:1.40999997;stroke-linecap:round;stroke-linejoin:round;stroke-miterlimit:10;stroke-opacity:1"
       d="m 64.908436,149.19188 0.0312,0.27734 0.0469,0.23828 0.0352,0.29297 0.0469,0.28906 0.0508,0.29297 0.0469,0.25781 0.0469,0.22657 0.0352,0.16015 0.0625,0.11328 0.14844,0.0625 h 0.14453 l 0.16406,-0.0312 0.22657,-0.0469 0.22656,-0.0352 0.25781,-0.0469 0.30859,-0.0625 0.3086,-0.0508 0.30859,-0.082 0.3086,-0.0781 0.30859,-0.0664 0.27344,-0.0976 0.24218,-0.0469 0.19532,-0.082 0.14843,-0.0781"
       id="path114"
       inkscape:connector-curvature="0" />
    <path
       style="fill:none;stroke:#3030ca;stroke-width:1.40999997;stroke-linecap:round;stroke-linejoin:round;stroke-miterlimit:10;stroke-opacity:1"
       d="m 67.713126,149.09422 v 2.4375 l -0.0156,0.72656 -0.0977,0.66407 -0.0664,0.59765 -0.082,0.48438 -0.0625,0.33593 0.0312,0.19532"
       id="path116"
       inkscape:connector-curvature="0" />
    <path
       style="fill:none;stroke:#3030ca;stroke-width:1.40999997;stroke-linecap:round;stroke-linejoin:round;stroke-miterlimit:10;stroke-opacity:1"
       d="m -24.927503,120.2661 -0.05078,-0.17579 v -0.55078 l -0.01563,-0.22656 -0.03125,-0.24219 -0.03125,-0.30468 -0.01563,-0.35547 v -0.3711 l 0.01563,-0.40625 v -1.27343 l 0.01563,-0.41797 0.01563,-0.45313 0.03125,-0.40234 0.05078,-0.40625 0.01563,-0.40235 -0.01563,-0.37109 -0.03516,-0.37109 -0.01563,-0.3711 v -0.75781 l 0.01563,-0.37109 v -0.77735 l 0.03516,-0.38672 0.03125,-0.38671 0.04687,-0.42188 0.05078,-0.43359 0.04688,-0.4375 0.03516,-0.44922 v -0.92188 l 0.01563,-0.48437 v -0.45313 l 0.01563,-0.44922 0.01563,-0.45312 v -1.24219 l 0.01563,-0.42187 0.01563,-0.40235 0.03516,-0.4375 v -1.41797 l 0.03125,-0.25781 0.01563,-0.17969 0.03516,-0.16015 0.01563,-0.14453 -0.08203,0.20703 -0.03125,0.42187 -0.01953,0.24219 -0.03125,0.25781 -0.03125,0.24219"
       id="path118"
       inkscape:connector-curvature="0" />
    <path
       style="fill:none;stroke:#3030ca;stroke-width:1.40999997;stroke-linecap:round;stroke-linejoin:round;stroke-miterlimit:10;stroke-opacity:1"
       d="m -25.13844,100.94578 -0.09766,0.0781 -0.113282,0.0976 -0.179687,0.16016 -0.175781,0.19531 -0.210938,0.27344 -0.226562,0.33984 -0.277344,0.38672 -0.292969,0.38672 -0.308594,0.3711 -0.289062,0.32421 -0.210938,0.28907 -0.148437,0.17968 -0.07813,0.0977 0.07813,-0.11328 0.132812,-0.16406 0.207032,-0.22266 0.246093,-0.27734 0.257813,-0.25782 0.210937,-0.27343 0.195313,-0.25782 0.179687,-0.25781 0.175781,-0.24219 0.148438,-0.21093 0.128906,-0.14453 0.08203,-0.12891 0.04687,-0.12891 0.144532,0.0977 0.132812,0.16016 0.210938,0.25781 0.289062,0.30469 0.34375,0.33984 0.402344,0.37109 0.457031,0.35547 0.402344,0.29297 0.4375,0.24219 0.359375,0.14453 0.324219,0.0781 0.226562,0.0977"
       id="path120"
       inkscape:connector-curvature="0" />
    <path
       style="fill:none;stroke:#3030ca;stroke-width:1.40999997;stroke-linecap:round;stroke-linejoin:round;stroke-miterlimit:10;stroke-opacity:1"
       d="m -27.978284,90.34031 h -0.175781 l -0.195313,0.01563 -0.195312,0.0312 h -0.339844 l -0.113281,-0.0156 h -0.128907 l 0.648438,-0.0312 0.40625,-0.0351 0.4375,-0.0625 0.515625,-0.0664 0.570313,-0.11328 0.582031,-0.14453 0.585937,-0.14453 0.550782,-0.17578 0.46875,-0.16407 0.40625,-0.16015 0.324218,-0.14453 0.421875,-0.21094 0.09766,-0.0469 -0.03125,0.17579 -0.09766,0.19531 -0.164062,0.27344 -0.210938,0.33984 -0.242187,0.41797 -0.292969,0.46875 -0.339844,0.51562 -0.390625,0.55078 -0.402344,0.5625 -0.375,0.56641 -0.339843,0.51563 -0.324219,0.45305 -0.261719,0.41797 -0.257812,0.33984 -0.210938,0.25782 -0.144531,0.16406 -0.08203,0.1289 0.03125,0.14454 0.128906,0.0781 0.246094,0.0352 0.339843,0.0469 0.40625,0.0508 0.484376,0.0312 0.550781,0.0312 0.570312,0.0312 0.550781,0.0352 h 0.5 l 0.457032,0.0156 h 0.421875 l 0.308593,-0.0351"
       id="path122"
       inkscape:connector-curvature="0" />
    <path
       style="fill:none;stroke:#ff0000;stroke-width:1.40999997;stroke-linecap:round;stroke-linejoin:round;stroke-miterlimit:10;stroke-opacity:1"
       d="m -24.423596,120.94578 h 0.113281 l 0.242187,0.0469 0.179688,0.0156 h 0.210937 l 0.257813,-0.0156 0.226562,-0.0469 0.210938,-0.0508 0.210937,-0.0469 0.210938,-0.0664 0.195312,-0.0625 0.210938,-0.0664 0.226562,-0.0312 0.210938,-0.0156 h 0.4375 l 0.210937,0.0156 0.195313,0.0156 0.226562,0.0156 0.210938,0.0156 0.210937,0.0195 0.226563,-0.0195 h 0.226562 l 0.226563,-0.0156 0.242187,-0.0156 0.261719,-0.0312 0.257812,-0.0156 h 1.671876 l 0.175781,-0.0156 0.164062,-0.0195 0.195313,-0.0156 0.257812,-0.0156 0.226563,-0.0156 h 0.761719 l 0.277343,0.0156 h 0.292969 l 0.273438,0.0156 0.308593,-0.0156 h 0.261719 l 0.726562,-0.0469 0.246094,-0.0312 0.242188,-0.0351 0.210937,-0.0156 h 0.453125 l 0.210938,0.0156 h 0.226562 l 0.242188,-0.0156 h 0.714844 l 0.242187,-0.0156 h 0.261719 l 0.257812,-0.0156 0.242188,-0.0156 0.261718,-0.0352 0.242188,-0.0312 0.242188,-0.0156 0.230468,-0.0312 0.226563,-0.0312 0.242187,-0.0195 0.257813,-0.0156 h 0.261719 l 0.226562,0.0156 0.257812,0.0352 0.226563,0.0156 0.261719,0.0312 0.242187,0.0156 h 0.925781 l 0.226563,-0.0156 h 0.453125 l 0.226562,-0.0156 h 0.4375 l 0.210938,0.0156 h 0.210938 l 0.195312,0.0156 0.195312,-0.0156 h 0.617188 l 0.210938,-0.0156 h 0.226562 l 0.226562,-0.0156 0.210938,-0.0156 0.144531,-0.0156 h 0.164063 l 0.113281,-0.0195 h 0.113281 l -0.06641,-0.1289 -0.0625,-0.12891 -0.09766,-0.0781"
       id="path124"
       inkscape:connector-curvature="0" />
    <path
       style="fill:none;stroke:#ff0000;stroke-width:1.40999997;stroke-linecap:round;stroke-linejoin:round;stroke-miterlimit:10;stroke-opacity:1"
       d="m -3.978284,116.74656 0.01563,0.12891 0.03516,0.0977 0.04687,0.0976 0.08203,0.14453 0.113281,0.19532 0.113281,0.20703 0.164062,0.22656 0.207032,0.24219 0.246094,0.27344 0.273437,0.27734 0.277344,0.25781 0.308593,0.25781 0.324219,0.24219 0.292969,0.22656 0.257812,0.19141 0.210938,0.19531 0.160156,0.11328 0.148438,0.12891 0.08203,0.082 0.07813,0.0937 0.08203,0.082 0.08203,0.0977 0.128907,0.0625 -0.08203,0.0977 -0.113282,0.0976 -0.144531,0.12891 -0.179687,0.14453 -0.242188,0.21094 -0.242188,0.19531 -0.261718,0.24219 -0.324219,0.23828 -0.273437,0.26172 -0.261719,0.22265 -0.242188,0.22657 -0.179687,0.14843 -0.09766,0.0781 0.06641,-0.0977 0.128906,-0.16015"
       id="path126"
       inkscape:connector-curvature="0" />
    <path
       style="fill:none;stroke:#ff0000;stroke-width:1.40999997;stroke-linecap:round;stroke-linejoin:round;stroke-miterlimit:10;stroke-opacity:1"
       d="m 3.806876,118.10203 -0.0977,0.082 v 0.11329 l 0.0469,0.14453 0.0977,0.22656 0.12891,0.19531 0.19531,0.24219 0.24609,0.28906 0.32422,0.32422 0.32422,0.38672 0.33985,0.38672 0.37109,0.37109 0.32422,0.35547 0.33984,0.33984 0.23047,0.24219 0.25781,0.19141 0.12891,0.1289 0.12891,0.0664 0.13281,0.0312"
       id="path128"
       inkscape:connector-curvature="0" />
    <path
       style="fill:none;stroke:#ff0000;stroke-width:1.40999997;stroke-linecap:round;stroke-linejoin:round;stroke-miterlimit:10;stroke-opacity:1"
       d="m 7.924056,118.41063 -0.16015,0.1914 -0.14844,0.21094 -0.24219,0.27344 -0.30859,0.29297 -0.32422,0.33984 -0.37109,0.41797 -0.35938,0.4375 -0.35547,0.48437 -0.32422,0.51563 -0.21093,0.48437 -0.22657,0.40235 -0.1289,0.37109 -0.0508,0.22656"
       id="path130"
       inkscape:connector-curvature="0" />
    <path
       style="fill:none;stroke:#00ff00;stroke-width:1.40999997;stroke-linecap:round;stroke-linejoin:round;stroke-miterlimit:10;stroke-opacity:1"
       d="m -25.040784,120.99266 0.113281,0.0469 -0.09766,0.082 0.113281,-0.0156 0.09766,-0.0312 0.113282,-0.0352 0.113281,-0.0625 0.144531,-0.0976 0.179688,-0.0977 0.195312,-0.12891 0.210938,-0.1289 0.226562,-0.14453 0.226563,-0.16016 0.226562,-0.17969 0.242188,-0.1914 0.277343,-0.19532 0.308594,-0.22656 0.339844,-0.21094 0.324219,-0.22265 0.617187,-0.42188 0.273438,-0.22656 0.324218,-0.20703 0.324219,-0.21094 0.617188,-0.42187 0.308593,-0.19141 0.277344,-0.19531 0.308594,-0.19141 0.339844,-0.19531 0.308594,-0.19531 0.339843,-0.19141 0.289063,-0.17969 0.277344,-0.17578 0.277343,-0.19531 0.257813,-0.17578 0.292968,-0.19531 0.289063,-0.17579 0.292969,-0.17968 0.277344,-0.19141 0.292968,-0.19531 0.304688,-0.19141 0.324218,-0.22656 0.359376,-0.21094 0.339843,-0.24219 0.324219,-0.21093 0.292969,-0.22266 0.273437,-0.24219 0.277344,-0.26172 0.257812,-0.24218 0.261719,-0.22266 0.226563,-0.21094 0.210937,-0.17968 0.175781,-0.16016 0.179688,-0.14453 0.113281,-0.082 0.113281,-0.14453 0.128907,-0.11329 0.08203,-0.11328 0.09766,-0.0976"
       id="path132"
       inkscape:connector-curvature="0" />
    <path
       style="fill:none;stroke:#00ff00;stroke-width:1.40999997;stroke-linecap:round;stroke-linejoin:round;stroke-miterlimit:10;stroke-opacity:1"
       d="m -13.724378,111.22703 0.09766,0.0977 0.128907,0.0469 0.132812,0.0156 0.144531,0.0156 h 0.210934 l 0.242188,-0.0312 0.261718,-0.0312 0.273438,-0.0508 0.292968,-0.0625 0.277344,-0.0664 0.242188,-0.0781 0.226562,-0.082 0.210938,-0.082 0.128906,-0.0469 0.164062,-0.0469 0.09766,-0.0352 0.113281,-0.0312 0.04687,0.16016 0.03125,0.17969 0.05078,0.24218 0.03125,0.27344 0.03125,0.32422 0.03516,0.32031 0.0625,0.3086 0.09766,0.22656 0.08203,0.19141 0.06641,0.14843"
       id="path134"
       inkscape:connector-curvature="0" />
    <path
       style="fill:none;stroke:#00ff00;stroke-width:1.40999997;stroke-linecap:round;stroke-linejoin:round;stroke-miterlimit:10;stroke-opacity:1"
       d="m -8.939222,105.18797 -0.09766,-0.0625 -0.09766,-0.0469 -0.01563,0.14453 0.144531,0.14453 0.179688,0.24219 0.195312,0.25781 0.242188,0.30859 0.277344,0.32031 0.289062,0.29297 0.292969,0.27344 0.210937,0.19141 0.179688,0.16406 0.160156,0.11328 h 0.179688"
       id="path136"
       inkscape:connector-curvature="0" />
    <path
       style="fill:none;stroke:#00ff00;stroke-width:1.40999997;stroke-linecap:round;stroke-linejoin:round;stroke-miterlimit:10;stroke-opacity:1"
       d="m -4.529065,105.65672 -0.128907,0.0508 -0.128906,0.0625 -0.132812,0.082 -0.207032,0.11328 -0.308593,0.16016 -0.308594,0.14453 -0.359375,0.19531 -0.355469,0.21094 -0.371093,0.24219 -0.359376,0.22266 -0.355468,0.24218 -0.339844,0.17969 -0.261719,0.21094 -0.160156,0.11328"
       id="path138"
       inkscape:connector-curvature="0" />
    <path
       style="fill:none;stroke:#00ff00;stroke-width:1.40999997;stroke-linecap:round;stroke-linejoin:round;stroke-miterlimit:10;stroke-opacity:1"
       d="m -7.529065,108.5161 h 0.128906 l 0.132813,0.0625 0.128906,0.11328 0.09766,0.19531 0.113281,0.28906 0.04687,0.32422 0.08203,0.37109 0.01562,0.46875 -0.01562,0.44922 -0.03125,0.45313 -0.05078,0.37109 -0.04687,0.27344"
       id="path140"
       inkscape:connector-curvature="0" />
    <path
       style="fill:none;stroke:#000000;stroke-width:1.40999997;stroke-linecap:round;stroke-linejoin:round;stroke-miterlimit:10;stroke-opacity:1"
       d="M 215.34203,56.41453 219.51,53.0161"
       id="path142"
       inkscape:connector-curvature="0" />
    <path
       style="fill:none;stroke:#000000;stroke-width:1.40999997;stroke-linecap:round;stroke-linejoin:round;stroke-miterlimit:10;stroke-opacity:1"
       d="m 198.66234,70.00828 4.17188,-3.39843 4.16797,-3.39844"
       id="path144"
       inkscape:connector-curvature="0" />
    <path
       style="fill:none;stroke:#000000;stroke-width:1.40999997;stroke-linecap:round;stroke-linejoin:round;stroke-miterlimit:10;stroke-opacity:1"
       d="m 186.15453,80.2075 4.17188,-3.40234"
       id="path146"
       inkscape:connector-curvature="0" />
    <path
       style="fill:none;stroke:#000000;stroke-width:1.40999997;stroke-linecap:round;stroke-linejoin:round;stroke-miterlimit:10;stroke-opacity:1"
       d="m 180.27563,82.76219 h 5.125"
       id="path148"
       inkscape:connector-curvature="0" />
    <path
       style="fill:none;stroke:#000000;stroke-width:1.40999997;stroke-linecap:round;stroke-linejoin:round;stroke-miterlimit:10;stroke-opacity:1"
       d="m 154.66234,82.76219 h 10.2461"
       id="path150"
       inkscape:connector-curvature="0" />
    <path
       style="fill:none;stroke:#000000;stroke-width:1.40999997;stroke-linecap:round;stroke-linejoin:round;stroke-miterlimit:10;stroke-opacity:1"
       d="m 134.17016,82.76219 h 10.24609"
       id="path152"
       inkscape:connector-curvature="0" />
    <path
       style="fill:none;stroke:#000000;stroke-width:1.40999997;stroke-linecap:round;stroke-linejoin:round;stroke-miterlimit:10;stroke-opacity:1"
       d="m 113.67797,82.76219 h 10.24609"
       id="path154"
       inkscape:connector-curvature="0" />
    <path
       style="fill:none;stroke:#3030ca;stroke-width:1.40999997;stroke-linecap:round;stroke-linejoin:round;stroke-miterlimit:10;stroke-opacity:1"
       d="m 185.34984,83.00438 -0.0664,0.082 -0.0625,0.14453 -0.0508,0.16016 -0.0312,0.21093 -0.0156,0.11328 -0.0312,0.25782 -0.0195,0.17578 -0.0156,0.14844 -0.0156,0.1914 -0.0156,0.14453 v 0.14453 l -0.0156,0.11329 -0.0156,0.1289 -0.0156,0.19531 -0.0195,0.11329 -0.0312,0.19531 -0.0156,0.1289 -0.0312,0.16016 -0.0351,0.19531 v 0.44922 l 0.0195,0.11328 0.0156,0.12891 0.0156,0.11328 v 0.12891 l 0.0156,0.11328 v 0.19531 l -0.0156,0.19141 -0.0156,0.17968 -0.0351,0.17579 v 0.19531 l 0.0195,0.21094 v 0.17578 l 0.0156,0.17578 0.0156,0.21094 0.0156,0.11328 v 0.11328 l 0.0152,0.11331 v 0.11328 l 0.0156,0.21094 0.0156,0.1914 0.0352,0.16407 0.0312,0.1914 0.0156,0.11328 0.0312,0.11329 0.0195,0.21093 0.0156,0.19141 0.0156,0.11328 0.0156,0.21094 v 0.1914 l 0.0156,0.11329 v 0.11328 l 0.0352,0.19531 v 1.88672 l 0.0156,0.1289 v 0.14844 l 0.0156,0.12891 0.0156,0.14453 0.0156,0.12891 v 0.1289 l 0.0156,0.11328 0.0156,0.17578 0.0195,0.11329 v 0.11328 l 0.0312,0.14453 -0.0312,0.11328 -0.0352,0.11328 -0.0312,0.11328 0.0312,0.11328 -0.11328,0.0508 -0.11328,-0.0351 -0.0977,-0.0937 -0.0625,-0.0977 -0.13281,-0.16406 -0.0625,-0.0937 -0.0664,-0.082 -0.0977,-0.16016 -0.0977,-0.17969 -0.11328,-0.17578 -0.0625,-0.0976 -0.0664,-0.0977 -0.0469,-0.0977 -0.082,-0.0937 -0.0664,-0.082 -0.0976,-0.0976 -0.0781,-0.082 -0.0976,-0.11329 -0.0977,-0.0937 -0.12891,-0.0976 -0.11328,-0.0977 -0.13281,-0.082 -0.0977,-0.0937 -0.11328,-0.082 -0.0937,-0.0977 -0.0976,-0.0781 -0.082,-0.0977 -0.11328,-0.1289 -0.0664,-0.11329 0.0976,0.19141 0.0977,0.16406 0.12891,0.19141 0.19531,0.27344 0.17969,0.26172 0.19531,0.30468 0.1914,0.27344 0.19532,0.29297 0.19531,0.28906 0.17969,0.27344 0.16015,0.22656 0.0977,0.14453 0.11328,0.12891 0.0664,0.082 0.1289,0.082 0.0977,0.0312 0.12891,-0.0312 0.1289,-0.0664 0.16406,-0.0625 0.0977,-0.0508 0.12891,-0.0937 0.14453,-0.1289 0.14844,-0.14844 0.1914,-0.20703 0.14844,-0.21094 0.16016,-0.22656 0.16406,-0.24219 0.28906,-0.48437 0.13281,-0.25782 0.12891,-0.19531 0.0977,-0.14453 0.11328,-0.14453 0.0976,-0.11328 0.11328,-0.12891 0.11329,-0.11328 0.082,-0.12891 0.0976,-0.11328 0.11328,-0.082 0.11329,-0.1289 0.11328,-0.0469 0.0976,-0.0664"
       id="path156"
       inkscape:connector-curvature="0" />
    <path
       style="fill:none;stroke:#3030ca;stroke-width:1.40999997;stroke-linecap:round;stroke-linejoin:round;stroke-miterlimit:10;stroke-opacity:1"
       d="m 181.33031,101.01219 h 5.88672"
       id="path158"
       inkscape:connector-curvature="0" />
    <path
       style="fill:none;stroke:#3030ca;stroke-width:1.40999997;stroke-linecap:round;stroke-linejoin:round;stroke-miterlimit:10;stroke-opacity:1"
       d="m 181.59984,107.53953 v -5.68359"
       id="path160"
       inkscape:connector-curvature="0" />
    <path
       style="fill:none;stroke:#3030ca;stroke-width:1.40999997;stroke-linecap:round;stroke-linejoin:round;stroke-miterlimit:10;stroke-opacity:1"
       d="m 181.53344,104.56688 4.41015,0.67968"
       id="path162"
       inkscape:connector-curvature="0" />
    <path
       style="fill:none;stroke:#3030ca;stroke-width:1.40999997;stroke-linecap:round;stroke-linejoin:round;stroke-miterlimit:10;stroke-opacity:1"
       d="m 188.30297,106.29735 -0.0352,-0.12891 -0.0976,0.12891 -0.0312,0.1289 0.0312,0.14453 0.0351,0.22657 0.0469,0.24218 0.0508,0.3086 0.0469,0.35156 0.0664,0.39062 0.0469,0.4336 0.0664,0.46875 0.0625,0.46875 0.0352,0.45312 0.0312,0.4336 0.0312,0.38672 0.0312,0.32421 v 0.41797 l -0.12891,-0.1289 -0.0976,-0.24219 -0.25782,-0.48438 -0.16406,-0.25781 -0.19141,-0.20703 -0.19531,-0.17969 -0.22656,-0.1289 -0.22656,-0.0469 h -0.23047 l -0.21094,0.0625 -0.19141,0.12891 -0.19531,0.16406 -0.14453,0.17578 -0.0977,0.22656 -0.0508,0.25782 -0.0156,0.27343 0.0469,0.29297 0.082,0.28907 0.12891,0.25781 0.17969,0.22656 0.21094,0.19531 0.27734,0.12891 0.32422,0.0469 0.35547,-0.0312 0.42187,-0.0976 0.42188,-0.17969 0.45312,-0.20703 0.42188,-0.25781 0.37109,-0.3086"
       id="path164"
       inkscape:connector-curvature="0" />
    <path
       style="fill:none;stroke:#3030ca;stroke-width:1.40999997;stroke-linecap:round;stroke-linejoin:round;stroke-miterlimit:10;stroke-opacity:1"
       d="m 194.62719,104.89891 3.86719,0.49219"
       id="path166"
       inkscape:connector-curvature="0" />
    <path
       style="fill:none;stroke:#3030ca;stroke-width:1.40999997;stroke-linecap:round;stroke-linejoin:round;stroke-miterlimit:10;stroke-opacity:1"
       d="m 196.96703,102.37156 v 5.63672"
       id="path168"
       inkscape:connector-curvature="0" />
    <path
       style="fill:none;stroke:#3030ca;stroke-width:1.40999997;stroke-linecap:round;stroke-linejoin:round;stroke-miterlimit:10;stroke-opacity:1"
       d="m 202.71703,104.76219 -0.0156,0.14844 0.0156,0.17578 v 0.27344 l 0.0156,0.32421 v 0.38672 l -0.0156,0.4375 -0.0156,0.44922 -0.0312,0.46875 -0.0352,0.4375 -0.0469,0.38672 -0.0508,0.30469 -0.0469,0.22656 -0.0312,0.11328 -0.0352,-0.24219 0.0156,-0.28906 0.0351,-0.40234 0.0625,-0.4375 0.082,-0.48438 0.082,-0.51562 0.0976,-0.51563 0.0977,-0.51953 0.0977,-0.46875 0.0937,-0.43359 0.0976,-0.38672 0.0977,-0.29297 0.1289,-0.22656 0.0977,-0.12891 0.11328,-0.0469 0.13281,0.0664 0.11329,0.14453 0.16015,0.24219 0.11328,0.35547 0.13282,0.43359 0.11328,0.46875 0.0937,0.48438 0.082,0.5 0.0508,0.38672 0.0312,0.35547 0.0312,0.21093 v 0.11329 l 0.0508,-0.24219 0.0312,-0.29297 0.0664,-0.40234 0.0625,-0.48438 0.0976,-0.5 0.11328,-0.5 0.12891,-0.5 0.13281,-0.42187 0.17578,-0.32032 0.14844,-0.19531 0.16016,-0.0625 0.14844,0.0937 0.16015,0.27734 0.14453,0.41797 0.13282,0.56641 0.1289,0.61328 0.0977,0.67578 0.0976,0.64844 0.0625,0.5625 0.0977,0.5 0.0664,0.32422 0.082,0.21094 0.0781,0.0625"
       id="path170"
       inkscape:connector-curvature="0" />
    <path
       style="fill:none;stroke:#3030ca;stroke-width:1.40999997;stroke-linecap:round;stroke-linejoin:round;stroke-miterlimit:10;stroke-opacity:1"
       d="m 210.35375,104.68406 -0.0625,-0.22656 -0.0352,-0.11328 -0.0625,-0.17969 -0.0351,-0.0937 -0.0977,-0.0976 -0.1289,-0.082 h -0.16016 l -0.22656,0.0664 -0.19532,0.16016 -0.19531,0.25781 -0.17969,0.35547 -0.14453,0.40234 -0.082,0.45313 -0.0156,0.51562 0.0664,0.51953 0.14453,0.46485 0.21094,0.4375 0.25781,0.32422 0.32422,0.20703 0.32422,0.1289 0.32813,0.0195 0.32422,-0.082 0.27343,-0.16015 0.24219,-0.24219 0.17969,-0.29297 0.1289,-0.33984 0.0977,-0.3711 0.0312,-0.37109 v -0.37109 l -0.0312,-0.3711 -0.0469,-0.30468 -0.0664,-0.25782 -0.0469,-0.16406 -0.0351,-0.0977 0.0156,0.16407 0.0508,0.25781 0.082,0.37109 0.11328,0.5 0.1289,0.58203 0.12891,0.69532 0.11328,0.75781 0.082,0.78906 0.0156,0.79297 -0.0469,0.75781 -0.13281,0.66016 -0.24219,0.58203 -0.30859,0.4375 -0.38672,0.25781 -0.47266,0.0977 -0.48437,-0.0664 -0.51953,-0.17578 -0.46875,-0.27734 -0.39063,-0.30469 -0.30859,-0.35547 -0.21094,-0.32422"
       id="path172"
       inkscape:connector-curvature="0" />
    <path
       style="fill:none;stroke:#3030ca;stroke-width:1.40999997;stroke-linecap:round;stroke-linejoin:round;stroke-miterlimit:10;stroke-opacity:1"
       d="m 185.39672,82.69969 -0.0352,-0.11328 -0.0469,-0.12891 -0.0312,-0.16015 V 82.02 l -0.0156,-0.14453 V 81.69969 L 185.23272,81.52 v -0.45312 l -0.0156,-0.19141 v -0.22656 l -0.0156,-0.24219 v -1.12891 l -0.0156,-0.22656 v -0.51562 l -0.0156,-0.25782 -0.0352,-0.26171 -0.0156,-0.28907 -0.0312,-0.28906 -0.0312,-0.30859 -0.0195,-0.28907 -0.0312,-0.27343 -0.0312,-0.26172 -0.0156,-0.25781 -0.0195,-0.25782 v -1.67968 l 0.0195,-0.28907 v -0.28906 l 0.0156,-0.30859 v -0.30469 l 0.0312,-0.30859 0.0156,-0.27344 0.0352,-0.29297 v -0.25781 l 0.0312,-0.25782 v -0.24218 l 0.0156,-0.20703 v -0.39063 l -0.0156,-0.19141 v -0.21093 l -0.0312,-0.21094 v -0.90234 l -0.0195,-0.27344 v -1.58203 l 0.0195,-0.25782 v -0.77734 l 0.0312,-0.25781 0.0312,-0.51563 0.0156,-0.27343 v -0.26172 l 0.0352,-0.25782 0.0156,-0.24218 0.0156,-0.20703 0.0156,-0.22657 0.0156,-0.21093 v -0.24219 l 0.0351,-0.21094 0.0156,-0.22266 0.0156,-0.22656 0.0156,-0.21094 v -0.48437 l 0.0312,-0.24219 v -0.48437 l -0.0312,-0.21094 v -0.82031 l -0.0156,-0.17969 -0.0156,-0.16016 -0.0156,-0.16406 -0.0351,-0.16016 v -0.16015 l -0.0156,-0.16406 -0.0156,-0.16016 -0.0156,-0.11328 -0.0156,-0.14453 -0.0352,-0.21094 -0.0156,-0.11328 -0.0312,-0.19141 -0.0312,-0.1289 -0.0508,-0.12891 -0.0976,-0.0664 h -0.11328 l -0.19532,0.082 -0.14453,0.0781 -0.14453,0.13281 -0.17969,0.16016 -0.21093,0.17578 -0.4375,0.4375 -0.24219,0.25781 -0.23047,0.24219 -0.20703,0.21094 -0.13281,0.14453 -0.14453,0.14453 -0.082,0.0977 -0.11328,0.11328 0.16407,-0.12891 0.1289,-0.0977 0.12891,-0.1289 0.16406,-0.17969 0.17578,-0.16016 0.14844,-0.17578 0.21094,-0.22656 0.21093,-0.21094 0.17579,-0.22656 0.22656,-0.24219 0.21094,-0.24218 0.22656,-0.24219 0.19531,-0.24219 0.17969,-0.22656 0.16015,-0.19141 0.0977,-0.14453 0.13281,-0.11328 0.12891,-0.0977 0.0977,-0.0312 0.0781,0.0781 0.0977,0.16406 0.14843,0.22656 0.17579,0.30469 0.19531,0.35547 0.26172,0.37109 0.25781,0.38672 0.29297,0.3711 0.27344,0.35546 0.24609,0.3086 0.20703,0.20703 0.19531,0.16406 0.11328,0.0469 0.0664,-0.12891 -0.0156,-0.21094 -0.082,-0.27343"
       id="path174"
       inkscape:connector-curvature="0" />
    <path
       style="fill:none;stroke:#3030ca;stroke-width:1.40999997;stroke-linecap:round;stroke-linejoin:round;stroke-miterlimit:10;stroke-opacity:1"
       d="m 181.21313,45.52391 -0.14844,0.0469 0.14844,0.0977 0.11328,0.0508 0.16015,0.0312 0.2461,0.0469 0.24218,0.0156 0.29297,-0.0156 0.30469,-0.0156 0.30859,-0.0469 0.35938,-0.0508 0.32422,-0.0312 0.27344,-0.0625 0.30859,-0.0508 0.21094,-0.082 0.21093,-0.0781 0.14454,-0.082"
       id="path176"
       inkscape:connector-curvature="0" />
    <path
       style="fill:none;stroke:#3030ca;stroke-width:1.40999997;stroke-linecap:round;stroke-linejoin:round;stroke-miterlimit:10;stroke-opacity:1"
       d="m 181.26,45.87938 -0.0469,0.1289 -0.0352,0.12891 -0.0312,0.21094 v 0.22656 l 0.0312,0.33594 0.0508,0.39062 0.0312,0.44922 0.0312,0.5 0.0195,0.58203 v 0.56641 l -0.0195,0.58203 -0.0312,0.54687 -0.0312,0.46875 -0.082,0.40235 -0.0156,0.24219 -0.0312,0.1289 0.0312,-0.11328 0.0469,-0.19141"
       id="path178"
       inkscape:connector-curvature="0" />
    <path
       style="fill:none;stroke:#3030ca;stroke-width:1.40999997;stroke-linecap:round;stroke-linejoin:round;stroke-miterlimit:10;stroke-opacity:1"
       d="m 181.48656,47.73485 -0.0976,0.0508 -0.0312,0.37109 0.11328,0.28906 0.17969,0.30469 0.24218,0.26172 0.29297,-0.0352 0.3086,-0.0312 h 0.33984 l 0.33984,0.0156 0.45313,0.0312 0.39062,0.0195 0.40625,0.0156 0.27344,0.0156 0.21094,-0.0312 0.14844,-0.0508"
       id="path180"
       inkscape:connector-curvature="0" />
    <path
       style="fill:none;stroke:#3030ca;stroke-width:1.40999997;stroke-linecap:round;stroke-linejoin:round;stroke-miterlimit:10;stroke-opacity:1"
       d="m 186.43188,51.35203 -0.0156,0.11328 0.0352,0.11329 0.0625,0.22265 0.0156,0.16406 0.0352,0.21094 0.0312,0.22266 0.0156,0.24219 0.0312,0.29296 0.0352,0.25782 0.0156,0.24218 v 0.5 l -0.11328,-0.0977 -0.082,-0.14453 -0.0976,-0.21094 -0.0664,-0.25781 -0.0625,-0.30469 -0.0312,-0.33984 v -0.3086 l 0.0156,-0.30469 0.0625,-0.27343 0.13282,-0.24219 0.16015,-0.21094 0.22657,-0.14453 0.27734,-0.11328 0.19531,-0.0664 0.28906,-0.0469 0.26172,-0.0156 0.27344,0.0312 0.30859,0.0156 0.26172,0.0664"
       id="path182"
       inkscape:connector-curvature="0" />
    <path
       style="fill:none;stroke:#3030ca;stroke-width:1.40999997;stroke-linecap:round;stroke-linejoin:round;stroke-miterlimit:10;stroke-opacity:1"
       d="m 191.11938,51.69188 -0.0312,0.16015 -0.0352,0.12891 -0.0156,0.14453 -0.0312,0.19531 0.0156,0.20703 0.0156,0.26172 v 0.25782 l 0.0156,0.22656 v 0.1914 l 0.0352,0.12891 0.0156,0.11328 0.0156,-0.17578 0.0156,-0.16406 0.0508,-0.20703 0.0312,-0.19532 0.0664,-0.21093 0.0625,-0.20703 0.082,-0.21094 0.0977,-0.17969 0.082,-0.12891 0.0976,-0.14453 0.0781,-0.082 0.11328,-0.0625 0.11328,-0.0664 0.23047,0.1289 0.0937,0.16406 0.0977,0.22657 0.0976,0.25781 0.082,0.28906 0.0664,0.25781 0.0469,0.19532 0.0312,0.11328 0.11329,0.0312 0.082,-0.082 0.0976,-0.16016 0.082,-0.22656 0.0977,-0.28906 0.11328,-0.27344 0.0977,-0.24219 0.0781,-0.17969 0.13282,-0.14453 0.1289,-0.0469 0.16016,0.0156 0.19531,0.0625 0.16406,0.17969 0.14453,0.24219 0.16407,0.27343 0.16015,0.33985 0.12891,0.32031 0.11328,0.29297 0.11328,0.24219 0.082,0.17578"
       id="path184"
       inkscape:connector-curvature="0" />
  </g>
</svg>
